<?xml version="1.0" encoding="iso-8859-1"?>
<!-- Uploaded to: SVG Repo, www.svgrepo.com, Generator: SVG Repo Mixer Tools -->
<svg height="800px" width="800px" version="1.1" id="Layer_1" xmlns="http://www.w3.org/2000/svg" xmlns:xlink="http://www.w3.org/1999/xlink" 
	 viewBox="0 0 512 512" xml:space="preserve">
<path style="fill:#DFDFE0;" d="M312.073,228.805H199.927c-62.169,0-112.567-50.398-112.567-112.567l0,0h337.28l0,0
	C424.639,178.408,374.242,228.805,312.073,228.805z"/>
<path style="fill:#CECED1;" d="M312.073,228.805H256.01V116.238h168.629l0,0C424.639,178.408,374.242,228.805,312.073,228.805z"/>
<path style="fill:#9B9BA1;" d="M374.263,221.697H137.737c-28.798,0-53.108,21.406-56.751,49.972L50.332,512h411.336l-30.654-240.332
	C427.37,243.102,403.061,221.697,374.263,221.697z"/>
<path style="fill:#757576;" d="M374.263,221.697H256.01c0,37.074-0.853,290.303-0.853,290.303h206.511l-30.654-240.332
	C427.37,243.102,403.061,221.697,374.263,221.697z"/>
<path style="fill:#EDEDEE;" d="M256,319.452L256,319.452c-60.417,0-109.394,48.977-109.394,109.394V512h218.789v-83.153
	C365.394,368.43,316.417,319.452,256,319.452z"/>
<path style="fill:#DFDFE0;" d="M256,319.452L256,319.452C256,345.043,256.813,512,256.813,512h108.582v-83.153
	C365.394,368.43,316.417,319.452,256,319.452z"/>
<path style="fill:#8B2975;" d="M319.684,90.024h-33.391c0-2.806-0.326-3.34-2.135-6.302c-2.799-4.584-7.029-11.51-7.029-23.708
	s4.231-19.124,7.029-23.707c1.809-2.962,2.135-3.496,2.135-6.302s-0.326-3.339-2.135-6.3c-2.799-4.582-7.029-11.509-7.029-23.706
	h33.391c0,2.806,0.326,3.339,2.134,6.299c2.8,4.582,7.03,11.509,7.03,23.707s-4.231,19.124-7.029,23.707
	c-1.809,2.962-2.135,3.496-2.135,6.302c0,2.807,0.326,3.341,2.135,6.303C315.453,70.901,319.684,77.827,319.684,90.024z"/>
<g>
	<path style="fill:#C0369E;" d="M234.872,90.024h-33.391c0-2.806-0.326-3.34-2.135-6.302c-2.799-4.584-7.029-11.51-7.029-23.708
		s4.231-19.124,7.029-23.707c1.809-2.962,2.135-3.496,2.135-6.302s-0.326-3.339-2.135-6.3c-2.799-4.582-7.029-11.509-7.029-23.706
		h33.391c0,2.806,0.326,3.339,2.134,6.299c2.8,4.582,7.03,11.509,7.03,23.707s-4.231,19.124-7.029,23.707
		c-1.809,2.962-2.135,3.496-2.135,6.302c0,2.807,0.326,3.341,2.135,6.303C230.642,70.901,234.872,77.827,234.872,90.024z"/>
	<path style="fill:#C0369E;" d="M256.813,512c19.634,0,35.585-15.854,35.704-35.488l0.001-0.216
		c1.178-31.672-18.715-53.913-43.382-73.111c-7.656,25.177-29.682,45.207-29.682,73.111l0,0c0,19.719,15.986,35.704,35.704,35.704
		H256.813z"/>
</g>
<path style="fill:#8B2975;" d="M256.813,512c19.634,0,35.585-15.854,35.704-35.488l0.001-0.216
	c1.066-28.669-15.131-49.608-36.506-67.561c0,0-0.854,75.47-0.854,103.265H256.813z"/>
</svg>